<svg width="80px" height="78px" viewBox="0 0 80 78" style="background-color: #ffffffff" xmlns="http://www.w3.org/2000/svg" xmlns:xlink="http://www.w3.org/1999/xlink" version="1.1" >
<text x="0" y="0" stroke="transparent" fill="#000000" transform="matrix(0.05 0 0 0.05 11.1422 28.1354)" style="font:normal normal normal 200px 'Arial'" >
O</text>
<text x="0" y="0" stroke="transparent" fill="#000000" transform="matrix(0.05 0 0 0.05 36.027 13.7042)" style="font:normal normal normal 200px 'Arial'" >
O</text>
<path stroke="transparent" fill="#000000" transform="matrix(0.05 0 0 0.05 -288 -57)" d="M 6066.37,1524.86 L 6054.37,1524.89 L 6053.95,1342.36 L 6065.96,1349.24 L 6066.37,1524.86 Z " />
<path stroke="transparent" fill="#000000" transform="matrix(0.05 0 0 0.05 -288 -57)" d="M 6308.52,1207.78 L 6308.48,1193.91 L 6469.8,1286.77 L 6463.82,1297.17 L 6308.52,1207.78 Z " />
<path stroke="transparent" fill="#000000" transform="matrix(0.05 0 0 0.05 -288 -57)" d="M 6308.48,1193.91 L 6308.52,1207.78 L 6065.96,1349.24 L 6053.95,1342.36 L 6308.48,1193.91 Z " />
<text x="0" y="0" stroke="transparent" fill="#000000" transform="matrix(0.05 0 0 0.05 60.9788 28.0195)" style="font:normal normal normal 200px 'Arial'" >
O</text>
<path stroke="transparent" fill="#000000" transform="matrix(0.05 0 0 0.05 -288 -57)" d="M 7050.76,1346.95 L 7062.74,1340.01 L 7063.13,1522.54 L 7051.13,1522.57 L 7050.76,1346.95 Z " />
<path stroke="transparent" fill="#000000" transform="matrix(0.05 0 0 0.05 -288 -57)" d="M 6806.89,1206.62 L 6806.84,1192.75 L 7062.74,1340.01 L 7050.76,1346.95 L 6806.89,1206.62 Z " />
<path stroke="transparent" fill="#000000" transform="matrix(0.05 0 0 0.05 -288 -57)" d="M 6806.84,1192.75 L 6806.89,1206.62 L 6652.18,1296.85 L 6646.14,1286.48 L 6806.84,1192.75 Z " />
<text x="0" y="0" stroke="transparent" fill="#000000" transform="matrix(0.05 0 0 0.05 61.0459 56.8331)" style="font:normal normal normal 200px 'Arial'" >
O</text>
<path stroke="transparent" fill="#000000" transform="matrix(0.05 0 0 0.05 -288 -57)" d="M 7301.91,2058.82 L 7313.92,2065.71 L 7152.61,2159.54 L 7146.57,2149.17 L 7301.91,2058.82 Z " />
<path stroke="transparent" fill="#000000" transform="matrix(0.05 0 0 0.05 -288 -57)" d="M 7301.25,1777.61 L 7313.24,1770.65 L 7313.92,2065.71 L 7301.91,2058.82 L 7301.25,1777.61 Z " />
<path stroke="transparent" fill="#000000" transform="matrix(0.05 0 0 0.05 -288 -57)" d="M 7313.24,1770.65 L 7301.25,1777.61 L 7143.28,1687.09 L 7149.24,1676.68 L 7313.24,1770.65 Z " />
<text x="0" y="0" stroke="transparent" fill="#000000" transform="matrix(0.05 0 0 0.05 11.2093 56.9185)" style="font:normal normal normal 200px 'Arial'" >
O</text>
<path stroke="transparent" fill="#000000" transform="matrix(0.05 0 0 0.05 -288 -57)" d="M 5818.09,1781.06 L 5806.08,1774.16 L 5968.78,1679.67 L 5974.81,1690.04 L 5818.09,1781.06 Z " />
<path stroke="transparent" fill="#000000" transform="matrix(0.05 0 0 0.05 -288 -57)" d="M 5818.75,2062.27 L 5806.76,2069.22 L 5806.08,1774.16 L 5818.09,1781.06 L 5818.75,2062.27 Z " />
<path stroke="transparent" fill="#000000" transform="matrix(0.05 0 0 0.05 -288 -57)" d="M 5973.41,2151.13 L 5967.43,2161.53 L 5806.76,2069.22 L 5818.75,2062.27 L 5973.41,2151.13 Z " />
<text x="0" y="0" stroke="transparent" fill="#000000" transform="matrix(0.05 0 0 0.05 36.0971 71.2033)" style="font:normal normal normal 200px 'Arial'" >
O</text>
<path stroke="transparent" fill="#000000" transform="matrix(0.05 0 0 0.05 -288 -57)" d="M 6068.63,2492.3 L 6056.65,2499.26 L 6056.21,2312.55 L 6068.21,2312.52 L 6068.63,2492.3 Z " />
<path stroke="transparent" fill="#000000" transform="matrix(0.05 0 0 0.05 -288 -57)" d="M 6311.17,2631.37 L 6311.19,2645.22 L 6056.65,2499.26 L 6068.63,2492.3 L 6311.17,2631.37 Z " />
<path stroke="transparent" fill="#000000" transform="matrix(0.05 0 0 0.05 -288 -57)" d="M 6467.8,2540.83 L 6473.8,2551.22 L 6311.19,2645.22 L 6311.17,2631.37 L 6467.8,2540.83 Z " />
<path stroke="transparent" fill="#000000" transform="matrix(0.05 0 0 0.05 -288 -57)" d="M 6810.22,2633.37 L 6810.22,2647.25 L 6645.33,2551.35 L 6651.36,2540.98 L 6810.22,2633.37 Z " />
<path stroke="transparent" fill="#000000" transform="matrix(0.05 0 0 0.05 -288 -57)" d="M 7053.36,2491.91 L 7065.38,2498.8 L 6810.22,2647.25 L 6810.22,2633.37 L 7053.36,2491.91 Z " />
<path stroke="transparent" fill="#000000" transform="matrix(0.05 0 0 0.05 -288 -57)" d="M 7065.38,2498.8 L 7053.36,2491.91 L 7052.94,2310.84 L 7064.94,2310.81 L 7065.38,2498.8 Z " />
</svg>
