<svg xmlns="http://www.w3.org/2000/svg" xmlns:xlink="http://www.w3.org/1999/xlink" viewBox="0 0 40 40" overflow="hidden"><defs><clipPath id="clip0"><rect x="262" y="288" width="40" height="40"/></clipPath></defs><g clip-path="url(#clip0)" transform="translate(-262 -288)"><path d="M276.084 288.003C275.206 288.003 274.409 288.679 274.208 289.556L273.611 292.463C273.012 292.664 272.412 292.901 271.856 293.142L269.42 291.506C269.102 291.289 268.73 291.185 268.362 291.185 267.859 291.185 267.357 291.379 266.988 291.747L265.712 292.982C265.075 293.657 264.995 294.654 265.474 295.451L267.109 297.88C266.827 298.438 266.59 298.997 266.429 299.592L263.518 300.191C262.64 300.389 262.003 301.148 262.003 302.102L262.003 303.895C262.003 304.812 262.64 305.568 263.518 305.809L266.429 306.404C266.63 306.963 266.868 307.562 267.109 308.117L265.474 310.549C264.995 311.305 265.075 312.379 265.712 313.018L266.988 314.253C267.357 314.621 267.846 314.815 268.345 314.815 268.71 314.815 269.085 314.711 269.42 314.49L271.856 312.858C272.412 313.135 273.012 313.417 273.611 313.537L274.208 316.444C274.409 317.321 275.166 317.997 276.084 317.997L277.879 317.997C278.794 317.997 279.591 317.321 279.792 316.444L280.392 313.537C280.831 313.417 281.347 313.216 281.786 313.018 282.107 312.898 282.224 312.5 282.107 312.222 281.987 311.985 281.759 311.857 281.534 311.857 281.457 311.857 281.38 311.871 281.307 311.901 280.791 312.182 280.312 312.379 279.752 312.5 279.554 312.58 279.353 312.778 279.313 312.938L278.637 316.203C278.596 316.484 278.315 316.762 277.956 316.762L276.164 316.762C275.802 316.762 275.564 316.484 275.444 316.203L274.807 312.938C274.767 312.701 274.606 312.54 274.368 312.5 273.611 312.299 272.851 312.021 272.214 311.623 272.114 311.563 272.003 311.533 271.896 311.533 271.786 311.533 271.675 311.563 271.575 311.623L268.824 313.457C268.72 313.54 268.586 313.584 268.452 313.584 268.278 313.584 268.1 313.51 267.987 313.376L266.75 312.102C266.469 311.861 266.469 311.503 266.63 311.265L268.466 308.515C268.623 308.318 268.623 308.077 268.466 307.88 268.067 307.2 267.786 306.484 267.588 305.728 267.548 305.528 267.347 305.33 267.149 305.29L263.876 304.651C263.598 304.574 263.36 304.293 263.36 303.935L263.36 302.142C263.36 301.824 263.598 301.546 263.876 301.466L267.149 300.827C267.387 300.75 267.548 300.63 267.588 300.352 267.786 299.633 268.067 298.877 268.466 298.241 268.583 298.04 268.583 297.762 268.466 297.562L266.63 294.855C266.429 294.574 266.469 294.176 266.75 293.979L267.987 292.741C268.117 292.61 268.285 292.55 268.449 292.55 268.583 292.55 268.717 292.59 268.824 292.664L271.575 294.494C271.675 294.574 271.786 294.614 271.896 294.614 272.003 294.614 272.114 294.574 272.214 294.494 272.931 294.096 273.611 293.778 274.368 293.58 274.566 293.54 274.767 293.34 274.807 293.142L275.444 289.914C275.524 289.596 275.802 289.355 276.164 289.355L277.956 289.355C278.315 289.355 278.556 289.596 278.637 289.914L279.313 293.142C279.353 293.38 279.474 293.54 279.752 293.58 280.469 293.778 281.229 294.096 281.866 294.494 281.966 294.534 282.087 294.554 282.204 294.554 282.325 294.554 282.446 294.534 282.546 294.494L285.256 292.664C285.377 292.577 285.521 292.537 285.662 292.537 285.843 292.537 286.02 292.607 286.134 292.741L287.37 293.979C287.611 294.256 287.611 294.574 287.451 294.855L285.615 297.562C285.457 297.762 285.457 298 285.615 298.241 286.013 298.917 286.335 299.633 286.533 300.352 286.573 300.549 286.774 300.75 286.972 300.827L290.204 301.466C290.523 301.506 290.76 301.824 290.76 302.142L290.76 303.935C290.76 304.293 290.523 304.534 290.204 304.651L286.972 305.29C286.734 305.33 286.573 305.487 286.533 305.728 286.375 306.287 286.174 306.842 285.936 307.321 285.776 307.639 285.936 307.96 286.214 308.117 286.302 308.161 286.389 308.181 286.472 308.181 286.697 308.181 286.894 308.043 287.012 307.839 287.213 307.401 287.41 306.883 287.571 306.404L290.442 305.809C291.36 305.608 291.997 304.852 291.997 303.895L291.997 302.102C291.997 301.188 291.36 300.429 290.442 300.191L287.571 299.592C287.37 298.997 287.132 298.438 286.851 297.88L288.526 295.451C289.005 294.695 288.928 293.617 288.248 292.982L287.012 291.747C286.643 291.379 286.157 291.185 285.655 291.185 285.29 291.185 284.915 291.289 284.58 291.506L282.144 293.142C281.588 292.861 280.988 292.583 280.392 292.463L279.792 289.556C279.591 288.679 278.834 288.003 277.879 288.003Z" fill="#657E93" fill-rule="evenodd"/><path d="M277.118 296C275.322 296 273.562 296.764 272.242 298.074 272 298.326 272 298.749 272.242 298.962 272.38 299.111 272.551 299.182 272.712 299.182 272.87 299.182 273.021 299.111 273.122 298.962 274.16 297.861 275.6 297.272 277.038 297.272 280.198 297.272 282.757 299.978 282.757 303.317 282.757 304.247 282.559 305.221 282.156 306.066 281.958 306.446 282.119 306.787 282.398 306.954 282.519 306.996 282.596 306.996 282.717 306.996 282.919 306.996 283.157 306.911 283.238 306.659 283.758 305.643 283.997 304.46 283.997 303.317 283.997 299.3 280.917 296 277.118 296Z" fill="#657E93" fill-rule="evenodd"/><path d="M270.963 300.004C270.714 300.004 270.475 300.168 270.354 300.458 270.118 301.169 270.003 302.001 270.003 302.792 270.003 306.749 273.003 310 276.71 310 278.112 310 279.477 309.5 280.646 308.625 280.957 308.415 280.997 307.999 280.804 307.75 280.686 307.551 280.499 307.456 280.319 307.456 280.198 307.456 280.077 307.498 279.985 307.582 279.048 308.335 277.879 308.751 276.71 308.751 273.628 308.751 271.133 306.085 271.133 302.792 271.133 302.127 271.251 301.501 271.444 300.875 271.641 300.5 271.444 300.126 271.172 300.042 271.104 300.014 271.032 300.004 270.963 300.004Z" fill="#657E93" fill-rule="evenodd"/><path d="M290.328 307C289.657 307 289.063 307.515 288.907 308.185L288.549 309.964C288.273 310.084 287.918 310.203 287.602 310.359L286.139 309.373C285.896 309.211 285.624 309.134 285.359 309.134 284.977 309.134 284.602 309.29 284.319 309.569L283.45 310.399C282.978 310.914 282.899 311.704 283.254 312.258L284.243 313.719C284.044 314.114 283.848 314.549 283.768 315.023 283.649 315.339 283.848 315.657 284.203 315.734 284.273 315.76 284.339 315.77 284.402 315.77 284.661 315.77 284.857 315.588 284.954 315.302 285.073 314.827 285.309 314.353 285.468 313.958 285.584 313.759 285.584 313.523 285.468 313.324L284.319 311.544C284.243 311.468 284.243 311.349 284.359 311.269L285.189 310.399C285.259 310.353 285.315 310.333 285.375 310.333 285.415 310.333 285.458 310.343 285.508 310.359L287.284 311.544C287.383 311.624 287.493 311.664 287.602 311.664 287.709 311.664 287.818 311.624 287.918 311.544 288.353 311.309 288.788 311.11 289.262 310.993 289.458 310.954 289.657 310.754 289.697 310.559L290.132 308.424C290.132 308.344 290.248 308.225 290.368 308.225L291.513 308.225C291.632 308.225 291.712 308.344 291.752 308.424L292.227 310.559C292.266 310.794 292.383 310.954 292.661 310.993 293.136 311.149 293.568 311.349 294.003 311.544 294.102 311.604 294.212 311.634 294.321 311.634 294.427 311.634 294.537 311.604 294.637 311.544L296.416 310.359C296.449 310.343 296.485 310.333 296.529 310.333 296.585 310.333 296.645 310.353 296.691 310.399L297.561 311.269C297.641 311.349 297.641 311.468 297.601 311.544L296.416 313.324C296.256 313.523 296.256 313.759 296.416 313.958 296.651 314.432 296.851 314.867 296.967 315.302 297.007 315.498 297.206 315.697 297.402 315.734L299.536 316.208C299.616 316.208 299.735 316.288 299.735 316.447L299.735 317.593C299.735 317.672 299.616 317.792 299.536 317.832L297.402 318.263C297.166 318.303 297.007 318.462 296.967 318.698 296.811 319.212 296.612 319.647 296.416 320.042 296.296 320.241 296.296 320.477 296.416 320.676L297.601 322.456C297.641 322.572 297.641 322.651 297.561 322.771L296.691 323.601C296.648 323.664 296.592 323.694 296.539 323.694 296.495 323.694 296.449 323.674 296.416 323.641L294.637 322.456C294.537 322.396 294.427 322.366 294.321 322.366 294.212 322.366 294.102 322.396 294.003 322.456 293.531 322.731 293.096 322.927 292.661 323.007 292.462 323.046 292.266 323.246 292.227 323.441L291.752 325.576C291.752 325.695 291.672 325.775 291.513 325.775L290.368 325.775C290.288 325.775 290.172 325.695 290.132 325.576L289.697 323.441C289.657 323.206 289.498 323.046 289.262 323.007 288.748 322.851 288.313 322.651 287.918 322.456 287.818 322.416 287.709 322.396 287.602 322.396 287.493 322.396 287.383 322.416 287.284 322.456L285.508 323.641C285.455 323.674 285.408 323.694 285.362 323.694 285.309 323.694 285.256 323.664 285.189 323.601L284.359 322.771C284.243 322.651 284.243 322.572 284.319 322.456L285.468 320.676C285.624 320.477 285.624 320.241 285.468 320.042 285.229 319.607 285.033 319.173 284.954 318.698 284.874 318.502 284.678 318.303 284.479 318.263L282.384 317.832C282.265 317.832 282.185 317.712 282.185 317.593L282.185 316.447C282.185 316.328 282.265 316.248 282.384 316.208L282.504 316.132C282.859 316.092 283.055 315.734 283.018 315.458 282.982 315.133 282.68 314.94 282.417 314.94 282.391 314.94 282.368 314.94 282.344 314.944L282.185 315.023C281.475 315.143 281 315.734 281 316.447L281 317.593C281 318.263 281.475 318.857 282.185 319.017L283.964 319.372C284.044 319.647 284.203 320.003 284.359 320.281L283.373 321.782C282.978 322.376 283.055 323.126 283.569 323.601L284.399 324.431C284.691 324.723 285.073 324.862 285.441 324.862 285.724 324.862 285.996 324.783 286.218 324.627L287.719 323.641C287.997 323.797 288.313 323.956 288.668 324.036L288.983 325.815C289.143 326.525 289.737 327 290.447 327L291.553 327C292.266 327 292.857 326.525 293.017 325.815L293.332 324.036C293.647 323.956 294.003 323.797 294.281 323.641L295.782 324.627C296.034 324.796 296.306 324.879 296.575 324.879 296.944 324.879 297.305 324.726 297.601 324.431L298.431 323.601C298.945 323.126 298.985 322.336 298.627 321.782L297.641 320.281C297.797 320.003 297.956 319.687 298.036 319.372L299.815 319.017C300.525 318.857 301 318.263 301 317.593L301 316.447C300.92 315.734 300.406 315.143 299.735 315.023L297.956 314.668C297.837 314.353 297.681 314.037 297.561 313.719L298.55 312.258C298.945 311.664 298.826 310.914 298.351 310.399L297.481 309.569C297.206 309.294 296.821 309.151 296.439 309.151 296.167 309.151 295.895 309.224 295.666 309.373L294.202 310.359C293.886 310.203 293.568 310.084 293.252 309.964L292.897 308.185C292.738 307.515 292.147 307 291.473 307Z" fill="#657E93" fill-rule="evenodd"/><path d="M291.001 314C289.327 314 288.003 315.327 288.003 316.999 288.003 318.638 289.327 319.997 291.001 319.997 291.663 319.997 292.29 319.789 292.814 319.406 293.057 319.23 293.092 318.881 292.919 318.638 292.82 318.518 292.665 318.457 292.51 318.457 292.392 318.457 292.278 318.492 292.187 318.568 291.839 318.814 291.42 318.952 291.001 318.952 289.956 318.952 289.083 318.079 289.083 317.034 289.119 315.918 289.991 315.083 291.037 315.083 292.082 315.083 292.955 315.953 292.955 316.999 292.955 317.315 293.198 317.523 293.476 317.523 293.754 317.523 294 317.245 294 316.999 294 315.327 292.638 314 291.001 314Z" fill="#657E93" fill-rule="evenodd"/><path d="M276.977 300.364C278.432 300.364 279.674 301.554 279.674 303 279.674 304.446 278.432 305.679 276.977 305.679 275.482 305.679 274.326 304.446 274.326 303 274.326 301.511 275.525 300.364 276.977 300.364ZM276.977 299.004C274.796 299.004 273 300.832 273 303 273 305.168 274.796 306.996 276.977 306.996 279.204 306.996 281 305.168 281 303 281 300.832 279.204 299.004 276.977 299.004Z" fill="#657E93" fill-rule="evenodd"/></g></svg>