<?xml version="1.0" encoding="UTF-8" standalone="no"?>
<svg
   xmlns:dc="http://purl.org/dc/elements/1.1/"
   xmlns:cc="http://creativecommons.org/ns#"
   xmlns:rdf="http://www.w3.org/1999/02/22-rdf-syntax-ns#"
   xmlns:svg="http://www.w3.org/2000/svg"
   xmlns="http://www.w3.org/2000/svg"
   xmlns:sodipodi="http://sodipodi.sourceforge.net/DTD/sodipodi-0.dtd"
   xmlns:inkscape="http://www.inkscape.org/namespaces/inkscape"
   viewBox="1.001 -0.432 29 29.000001">
  <path
     stroke="transparent"
     fill="#000000"
     d="M 29.85277,21.65846 H 28.345272 V 7.5379032 h 1.507498 z"
     id="path50"
     style="stroke-width:0.918031" />
  <path
     stroke="transparent"
     fill="#000000"
     d="M 26.778471,21.65846 H 25.270973 V 7.5379032 h 1.507498 z"
     style="stroke-width:1.83606px"
     id="path52" />
  <path
     stroke="#000000"
     fill="transparent"
     d="m 15.735728,9.1033549 c 1.864175,2.4470701 4.969845,3.5306281 7.714969,2.6912381"
     style="stroke-width:1.14754px"
     id="path54" />
  <path
     stroke="transparent"
     fill="#000000"
     d="m 14.127672,5.6531326 c 0,0 2.744695,3.3698135 2.744695,3.3698135 0,0 -0.760195,-0.1573857 -1.136639,0.080412 -0.376445,0.2377955 -0.677257,1.0659069 -0.677257,1.0659069 0,0 -0.930799,-4.5161285 -0.930799,-4.5161285 0,0 0,0 0,0"
     style="stroke-width:0.0459017"
     id="path56" />
  <path
     stroke="#000000"
     fill="transparent"
     d="m 14.127672,5.6531326 c 0,0 2.744695,3.3698135 2.744695,3.3698135 0,0 -0.760195,-0.1573857 -1.136639,0.080412 -0.376445,0.2377955 -0.677257,1.0659069 -0.677257,1.0659069 0,0 -0.930799,-4.5161285 -0.930799,-4.5161285 0,0 0,0 0,0"
     style="stroke-width:0.615083px"
     id="path58" />
  <path
     stroke="#000000"
     fill="transparent"
     d="M 8.8813928,16.223121 C 9.432309,13.87999 8.812206,11.239739 7.3090053,9.5246797"
     style="stroke-width:1.14754px"
     id="path60" />
  <path
     stroke="transparent"
     fill="#000000"
     d="m 7.3090053,19.330626 c 0,0 0.9759201,-4.113106 0.9759201,-4.113106 0,0 0.2836229,0.79134 0.5964674,1.005601 0.3132739,0.213769 1.0459661,0.117672 1.0459661,0.117672 0,0 -2.6183536,2.989833 -2.6183536,2.989833 0,0 0,0 0,0"
     style="stroke-width:0.0459017"
     id="path62" />
  <path
     stroke="#000000"
     fill="transparent"
     d="m 7.3090053,19.330626 c 0,0 0.9759201,-4.113106 0.9759201,-4.113106 0,0 0.2836229,0.79134 0.5964674,1.005601 0.3132739,0.213769 1.0459661,0.117672 1.0459661,0.117672 0,0 -2.6183536,2.989833 -2.6183536,2.989833 0,0 0,0 0,0"
     style="stroke-width:0.615083px"
     id="path64" />
  <path
     stroke="#000000"
     fill="transparent"
     d="m 20.624774,18.084099 c -2.663602,-0.542164 -5.470501,0.716261 -7.010643,3.143803"
     style="stroke-width:1.14754px"
     id="path66" />
  <path
     stroke="transparent"
     fill="#000000"
     d="m 23.805334,19.643973 c 0,0 -4.026782,-0.714343 -4.026782,-0.714343 0,0 0.684267,-0.404557 0.846222,-0.845531 0.161531,-0.440907 -0.0624,-1.291296 -0.0624,-1.291296 0,0 3.242959,2.85117 3.242959,2.85117 0,0 0,0 0,0"
     style="stroke-width:0.0459017"
     id="path68" />
  <path
     stroke="#000000"
     fill="transparent"
     d="m 23.805334,19.643973 c 0,0 -4.026782,-0.714343 -4.026782,-0.714343 0,0 0.684267,-0.404557 0.846222,-0.845531 0.161531,-0.440907 -0.0624,-1.291296 -0.0624,-1.291296 0,0 3.242959,2.85117 3.242959,2.85117 0,0 0,0 0,0"
     style="stroke-width:0.615083px"
     id="path70" />
  <path
     stroke="transparent"
     fill="#000000"
     d="M 1.7458085,8.3220172 1.0191326,6.8859855 12.128812,-0.43219216 12.855489,1.0038395 Z"
     id="path72"
     style="stroke-width:0.918031" />
  <path
     stroke="transparent"
     fill="#000000"
     d="M 4.6952692,9.8181896 3.9415201,8.3286573 12.501169,2.6902382 13.254918,4.1797709 Z"
     id="path74"
     style="stroke-width:0.918031" />
  <path
     stroke="transparent"
     fill="#000000"
     d="M 2.5080571,21.326699 H 1.000559 V 7.102192 h 1.5074981 z"
     style="stroke-width:1.83606px"
     id="path76" />
  <path
     stroke="transparent"
     fill="#000000"
     d="m 1.0192433,21.262378 0.7537491,-1.489532 11.0903146,7.305431 -0.753749,1.489531 z"
     id="path78"
     style="stroke-width:0.918031" />
  <path
     stroke="transparent"
     fill="#000000"
     d="m 3.9420603,19.907113 0.7735166,-1.528596 8.5596391,5.638421 -0.773517,1.528594 z"
     id="path80"
     style="stroke-width:0.918031" />
</svg>
